# xmcd
#
# Track frame offsets: 
#        150
#        6337
#        33413
#        56324
#        79412
#        99499
#        126217
#        159152
#        186917
#        221655
#        237531
#        260640
#        278599
#        299140
#        321058
#
# Disc length: 4622 seconds
#
# Revision: 2
# Processed by: cddbd v1.5.2PL0 Copyright (c) Steve Scherf et al.
# Submitted via: ExactAudioCopy v1.3
#
DISCID=dc120c0f
DTITLE=Various Artist - Jazz Reworks - The New MPS Sessions
DYEAR=2004
DGENRE=Jazz
TTITLE0=Orchester Erwin Lehn - Color (Salut's intro-edit)
TTITLE1=Horst Jankowski - Speech Craft (no sleep til dawn remix by for
TTITLE1=ss)
TTITLE2=Dave Pike Set - Mathar (The Frank Popp Ensemble mix)
TTITLE3=Orchester Erwin Lehn - Color (Stereo MC's Mix)
TTITLE4=George Duke - Feel (Spacek mix)
TTITLE5=Hans Koller  - The Twister (Moonstar rmx)
TTITLE6=Fritz Pauer trio  - Terra Samba (Soulpatrol Album mix)
TTITLE7=Hans Koller  - Music for Pablo (Lonley urban cowboy version by
TTITLE7=Alexdrum)
TTITLE8=George Duke - Theme from te opera "Tzina" (King Britt Scuba Re
TTITLE8=mix)
TTITLE9=Mary Lou Williams - Anima Christi (Straight to Mels head Two b
TTITLE9=anks of four remix)
TTITLE10=Peter Herbolzheimer rythm combination and brass - The Ballad of
TTITLE10=the sad young men (Dzihan and Kamien's biologypolyphony)
TTITLE11=Volker Kriegel - Zoom (Malente re-interpretation album mix)
TTITLE12=Kenny Clarke-Francy Boland Big Band - Um grao de areia (Matth
TTITLE12=ew Herbert remix)
TTITLE13=Wolfgang Dauner  - Take off your clothes to feel teh setting 
TTITLE13=sun (Mojo Club's taking the sun higher mix by The Original Ja
TTITLE13=zz Rockers)
TTITLE14=Don Menza  - Morning song (DJ DSL mix)
EXTD=YEAR: 2004
EXTT0=
EXTT1=
EXTT2=
EXTT3=
EXTT4=
EXTT5=
EXTT6=
EXTT7=
EXTT8=
EXTT9=
EXTT10=
EXTT11=
EXTT12=
EXTT13=
EXTT14=
PLAYORDER=
